<?xml version="1.0" encoding="UTF-8"?>
<svg width="478px" height="1205px" viewBox="0 0 478 1205" version="1.1" xmlns="http://www.w3.org/2000/svg" xmlns:xlink="http://www.w3.org/1999/xlink">
    <!-- Generator: Sketch 63.1 (92452) - https://sketch.com -->
    <title>CustomerSuccess_SVG</title>
    <desc>Created with Sketch.</desc>
    <g id="CustomerSuccess_SVG" stroke="none" stroke-width="1" fill="none" fill-rule="evenodd">
        <g id="CustomerSuccess_MD" transform="translate(603.500000, 602.000000) rotate(-180.000000) translate(-603.500000, -602.000000) translate(0.000000, -0.000000)" fill="#7C4DFF" fill-rule="nonzero">
            <g transform="translate(603.500000, 602.000000) rotate(-180.000000) translate(-603.500000, -602.000000) translate(0.000000, -0.000000)" id="Shape">
                <path d="M989.013996,601.677875 C989.07004,785.128922 859.163708,943.074747 678.736232,978.92582 C498.308757,1014.77689 317.60908,918.548711 247.141529,749.088256 C176.673977,579.627801 236.06372,384.129706 388.991803,282.14806 C541.919885,180.166414 745.795929,200.103043 875.94243,329.765984 C948.546085,401.702733 989.262788,499.61831 989.013996,601.677875 M1206.76764,601.677875 C1206.76764,269.375049 936.623556,0 603.372042,0 C270.120528,0 0,269.375049 0,601.677875 C0,933.980702 270.144085,1203.33226 603.372042,1203.33226 C936.6,1203.33226 1206.76764,933.957212 1206.76764,601.677875 Z"></path>
            </g>
        </g>
    </g>
</svg>